<?xml version="1.0" encoding="UTF-8" standalone="no"?> <svg width="64" height="64" viewBox="0 0 64 64" fill="none" xmlns="http://www.w3.org/2000/svg">
<path d="M61.06 2.93974C60.8633 2.74408 60.6161 2.60685 60.346 2.54329C60.0759 2.47974 59.7934 2.49235 59.53 2.57974L3.53004 21.2397C3.25136 21.3373 3.00767 21.5149 2.82951 21.7504C2.65134 21.9858 2.54662 22.2686 2.52847 22.5633C2.51032 22.858 2.57954 23.1515 2.72747 23.407C2.87539 23.6625 3.09544 23.8687 3.36004 23.9997L28.21 35.7897L40 60.6397C40.1209 60.8959 40.3118 61.1127 40.5507 61.2649C40.7896 61.4171 41.0668 61.4985 41.35 61.4997H41.44C41.7371 61.4836 42.0227 61.38 42.2611 61.2021C42.4995 61.0242 42.68 60.7799 42.78 60.4997L61.44 4.49974C61.531 4.23043 61.5436 3.9408 61.4763 3.66461C61.4091 3.38842 61.2647 3.13703 61.06 2.93974V2.93974Z" fill="#97CCEF"/>
<path d="M60.79 2.71988C60.5015 2.54438 60.1624 2.47069 59.827 2.51057C59.4917 2.55045 59.1794 2.70161 58.94 2.93988L28.29 33.5799C28.0688 33.8029 27.9222 34.089 27.8703 34.3988C27.8184 34.7086 27.8637 35.0269 28 35.3099L40 60.6399C40.1216 60.8976 40.3141 61.1154 40.5549 61.2677C40.7958 61.42 41.0751 61.5005 41.36 61.4999H41.45C41.746 61.4844 42.0307 61.381 42.2676 61.2028C42.5045 61.0247 42.6829 60.78 42.78 60.4999L61.45 4.49988C61.5622 4.17259 61.5577 3.81658 61.4374 3.49219C61.3172 3.16779 61.0884 2.89495 60.79 2.71988V2.71988Z" fill="#0099D6"/>
</svg>
